<svg width="79" height="132" viewBox="0 0 79 132" fill="none" xmlns="http://www.w3.org/2000/svg">
<g clip-path="url(#clip0_202_4564)">
<path d="M78.6506 95.481C77.7623 92.4088 70.7331 89.707 69.3357 89.1961C67.8364 88.6466 63.9865 87.33 60.2893 86.8454C53.799 83.6696 46.5205 81.4506 46.3818 81.4102C46.2659 81.3857 43.3868 80.7817 35.3499 80.7817C30.0077 80.7817 24.7937 81.8351 20.1942 82.762C17.7855 83.2483 15.5121 83.71 13.4932 83.9593C7.69284 84.6756 3.32502 84.7423 3.28113 84.7423C3.11155 84.7448 2.94651 84.7975 2.80685 84.8937C2.66719 84.99 2.55916 85.1254 2.4964 85.283C2.39282 85.5375 0 91.5626 0 94.3171C0 97.298 4.16067 100.295 4.63467 100.628C4.77862 100.73 4.95067 100.783 5.12622 100.783H6.85896C7.50897 101.831 8.41529 102.697 9.49246 103.298C10.5696 103.899 11.7822 104.216 13.0157 104.218C14.2496 104.217 15.4627 103.9 16.5403 103.299C17.6179 102.698 18.5244 101.832 19.1742 100.783H54.8558C56.0935 102.832 58.3213 104.218 60.8862 104.218C63.451 104.218 65.6771 102.832 66.9183 100.783H77.8975C78.0798 100.783 78.2574 100.725 78.4047 100.618C78.5521 100.511 78.6616 100.359 78.7174 100.186C78.7402 100.098 79.3845 98.0195 78.6506 95.481ZM57.5296 87.4458C55.9009 87.774 54.2492 87.9748 52.5894 88.0462L52.6351 87.962C52.6949 87.8523 52.7304 87.731 52.739 87.6063C52.7476 87.4817 52.7292 87.3567 52.685 87.2398C52.6409 87.1229 52.572 87.017 52.483 86.9292C52.3941 86.8415 52.2873 86.774 52.1698 86.7313L49.5839 85.8167C49.4685 85.7761 49.3457 85.7606 49.2237 85.7712C49.1018 85.7818 48.9836 85.8184 48.8769 85.8784C48.7702 85.9383 48.6775 86.0204 48.6051 86.1191C48.5327 86.2177 48.4821 86.3307 48.4568 86.4504L48.1198 88.0761C43.7397 87.9321 38.8733 87.3475 33.4925 86.6049L35.8502 82.5039C43.1884 82.5285 45.9359 83.0745 45.9552 83.0745C49.8929 84.3116 53.7572 85.771 57.5296 87.4458ZM20.5347 84.4473C24.6076 83.6257 29.1773 82.7445 33.8243 82.5689L31.6527 86.3486L28.7156 85.9325C25.7189 85.5059 22.6607 85.0688 19.4884 84.658L20.5347 84.4473ZM13.0157 102.5C11.5395 102.497 10.1245 101.91 9.08064 100.866C8.03683 99.8223 7.44939 98.4073 7.44707 96.9311C7.44893 95.4549 8.03627 94.0398 9.08024 92.9962C10.1242 91.9525 11.5395 91.3656 13.0157 91.3642C14.4923 91.3647 15.9083 91.9512 16.9528 92.995C17.9972 94.0388 18.5847 95.4545 18.5861 96.9311C18.5837 98.4076 17.9961 99.8229 16.9519 100.867C15.9077 101.911 14.4922 102.498 13.0157 102.5ZM60.8862 102.5C59.4688 102.498 58.11 101.935 57.1078 100.932C56.1056 99.9303 55.5419 98.5714 55.5405 97.154C55.5414 95.7366 56.1049 94.3774 57.1072 93.3751C58.1096 92.3728 59.4687 91.8093 60.8862 91.8084C62.3036 91.8093 63.6628 92.3728 64.6651 93.3751C65.6674 94.3774 66.2309 95.7366 66.2318 97.154C66.2295 98.5711 65.6656 99.9294 64.6636 100.931C63.6616 101.933 62.3032 102.497 60.8862 102.5Z" fill="#E40604"/>
<path d="M13.0155 100.479C14.974 100.479 16.5617 98.8915 16.5617 96.9329C16.5617 94.9744 14.974 93.3867 13.0155 93.3867C11.0569 93.3867 9.46924 94.9744 9.46924 96.9329C9.46924 98.8915 11.0569 100.479 13.0155 100.479Z" fill="#E40604"/>
<path d="M60.8861 100.7C62.8446 100.7 64.4323 99.1127 64.4323 97.1541C64.4323 95.1956 62.8446 93.6079 60.8861 93.6079C58.9275 93.6079 57.3398 95.1956 57.3398 97.1541C57.3398 99.1127 58.9275 100.7 60.8861 100.7Z" fill="#E40604"/>
</g>
<path d="M37.5 0C24.8673 0 14.625 10.0744 14.625 22.5C14.625 27.3928 16.2558 31.8825 18.9665 35.5594C19.0151 35.6475 19.0227 35.7459 19.078 35.8303L34.328 58.3303C35.0352 59.3738 36.2266 60 37.5 60C38.7734 60 39.9648 59.3738 40.672 58.3303L55.922 35.8303C55.9782 35.7459 55.9849 35.6475 56.0335 35.5594C58.7442 31.8825 60.375 27.3928 60.375 22.5C60.375 10.0744 50.1327 0 37.5 0ZM37.5 30C33.2891 30 29.875 26.6419 29.875 22.5C29.875 18.3581 33.2891 15 37.5 15C41.7109 15 45.125 18.3581 45.125 22.5C45.125 26.6419 41.7109 30 37.5 30Z" fill="#E40604"/>
<defs>
<clipPath id="clip0_202_4564">
<rect width="79" height="79" fill="white" transform="translate(0 53)"/>
</clipPath>
</defs>
</svg>
