<svg width="30" height="30" viewBox="0 0 30 30" fill="none" xmlns="http://www.w3.org/2000/svg">
<rect width="30" height="30" rx="6" fill="#E6E6E6"/>
<g clip-path="url(#clip0_216_15078)">
<g clip-path="url(#clip1_216_15078)">
<path d="M24 15.0926L20.1086 12.8586C20.0379 13.3374 19.8999 13.8037 19.6988 14.2438L21.1773 15.0926L15 18.6389L8.82267 15.0926L10.3013 14.2438C10.1001 13.8037 9.96212 13.3374 9.89147 12.8586L6 15.0926L9.24356 16.9547L6 18.8167L15 23.9834L24 18.8167L20.7564 16.9547L24 15.0926ZM21.1773 18.8167L15 22.3629L8.82267 18.8167L10.6549 17.7649L15 20.2593L19.3452 17.7649L21.1773 18.8167Z" fill="#202020"/>
<path d="M17.0941 8.51095C16.3169 7.45739 15.551 6.61818 15.5188 6.58298L15.0004 6.0166L14.4821 6.58298C14.4498 6.61818 13.6839 7.45743 12.9067 8.51095C11.786 10.0301 11.2412 11.2047 11.2412 12.036C11.2412 14.1135 12.9276 15.8655 15.0004 15.8655C17.0732 15.8655 18.7596 14.1135 18.7596 12.036C18.7596 11.2047 18.2148 10.0301 17.0941 8.51095ZM15.0004 14.4602C13.7025 14.4602 12.6465 13.3386 12.6465 12.0361C12.6465 11.8552 12.7463 11.0977 14.0306 9.35463C14.3774 8.88399 14.7272 8.45281 15.0004 8.12804C15.2715 8.45017 15.6181 8.87742 15.9632 9.34525C17.254 11.0949 17.3543 11.8547 17.3543 12.0361C17.3543 13.3386 16.2984 14.4602 15.0004 14.4602Z" fill="#202020"/>
</g>
</g>
<defs>
<clipPath id="clip0_216_15078">
<rect width="18" height="18" fill="white" transform="translate(6 6)"/>
</clipPath>
<clipPath id="clip1_216_15078">
<rect width="18" height="18" fill="white" transform="translate(6 6)"/>
</clipPath>
</defs>
</svg>
