<svg width="25" height="26" viewBox="0 0 25 26" fill="none" xmlns="http://www.w3.org/2000/svg">
<path d="M12.5031 0.5H12.4969C5.60469 0.5 0 6.10625 0 13C0 15.7344 0.88125 18.2687 2.37969 20.3266L0.821875 24.9703L5.62656 23.4344C7.60313 24.7438 9.96094 25.5 12.5031 25.5C19.3953 25.5 25 19.8922 25 13C25 6.10781 19.3953 0.5 12.5031 0.5ZM19.7766 18.1516C19.475 19.0031 18.2781 19.7094 17.3234 19.9156C16.6703 20.0547 15.8172 20.1656 12.9453 18.975C9.27187 17.4531 6.90625 13.7203 6.72188 13.4781C6.54531 13.2359 5.2375 11.5016 5.2375 9.70781C5.2375 7.91406 6.14844 7.04063 6.51562 6.66563C6.81719 6.35781 7.31562 6.21719 7.79375 6.21719C7.94844 6.21719 8.0875 6.225 8.2125 6.23125C8.57969 6.24687 8.76406 6.26875 9.00625 6.84844C9.30781 7.575 10.0422 9.36875 10.1297 9.55313C10.2188 9.7375 10.3078 9.9875 10.1828 10.2297C10.0656 10.4797 9.9625 10.5906 9.77812 10.8031C9.59375 11.0156 9.41875 11.1781 9.23438 11.4062C9.06563 11.6047 8.875 11.8172 9.0875 12.1844C9.3 12.5437 10.0344 13.7422 11.1156 14.7047C12.5109 15.9469 13.6422 16.3438 14.0469 16.5125C14.3484 16.6375 14.7078 16.6078 14.9281 16.3734C15.2078 16.0719 15.5531 15.5719 15.9047 15.0797C16.1547 14.7266 16.4703 14.6828 16.8016 14.8078C17.1391 14.925 18.925 15.8078 19.2922 15.9906C19.6594 16.175 19.9016 16.2625 19.9906 16.4172C20.0781 16.5719 20.0781 17.2984 19.7766 18.1516Z" fill="white"/>
</svg>
