<svg width="30" height="30" viewBox="0 0 30 30" fill="none" xmlns="http://www.w3.org/2000/svg">
<rect width="30" height="30" rx="6" fill="#E6E6E6"/>
<g clip-path="url(#clip0_216_15086)">
<g clip-path="url(#clip1_216_15086)">
<g clip-path="url(#clip2_216_15086)">
<path d="M21.9934 8.82537H21.5547V8.13731C21.5547 7.5024 21.0508 6.96912 20.4156 6.96912H19.3209C18.6859 6.96912 18.1797 7.50237 18.1797 8.13731V8.82537H12.6953V8.13731C12.6953 7.5024 12.1891 6.96912 11.5541 6.96912H10.4594C9.8242 6.96912 9.32031 7.50237 9.32031 8.13731V8.82537H8.88156C7.84176 8.82891 7.00068 9.67256 7 10.7122V20.7012C7.00169 21.739 7.84375 22.5791 8.88156 22.5785H21.9934C23.0313 22.5792 23.8734 21.739 23.875 20.7012V10.7122C23.8743 9.67256 23.0333 8.82894 21.9934 8.82537ZM19.0234 8.13731C19.0234 7.96751 19.1512 7.81287 19.3209 7.81287H20.4156C20.5854 7.81287 20.7109 7.96751 20.7109 8.13731V10.6816H19.0234V8.13731ZM10.1641 8.13731C10.1641 7.96751 10.2894 7.81287 10.4594 7.81287H11.5542C11.7238 7.81287 11.8516 7.96751 11.8516 8.13731V10.6816H10.1641V8.13731ZM8.88156 9.66912H9.32031V11.0976C9.31387 11.3274 9.495 11.5189 9.72491 11.5254H12.284C12.5149 11.5217 12.6991 11.3313 12.6953 11.1005V9.66912H18.1797V11.0976C18.1743 11.3284 18.3572 11.5201 18.5881 11.5254H21.1455C21.3754 11.5214 21.5585 11.332 21.5547 11.1021V9.66912H21.9934C22.5673 9.67216 23.0311 10.1382 23.0313 10.7122V12.5379H7.84375V10.7122C7.84389 10.1382 8.30768 9.67216 8.88156 9.66912ZM21.9934 21.7347H8.88156C8.30967 21.7361 7.84493 21.2733 7.84375 20.7014V13.3816H23.0313V20.7012C23.0301 21.273 22.5657 21.7358 21.9937 21.7347H21.9934Z" fill="#202020"/>
</g>
</g>
</g>
<defs>
<clipPath id="clip0_216_15086">
<rect width="18" height="18" fill="white" transform="translate(6 6)"/>
</clipPath>
<clipPath id="clip1_216_15086">
<rect width="18" height="18" fill="white" transform="translate(6 6)"/>
</clipPath>
<clipPath id="clip2_216_15086">
<rect width="18" height="18" fill="white" transform="translate(7 7)"/>
</clipPath>
</defs>
</svg>
