<svg width="79" height="79" viewBox="0 0 79 79" fill="none" xmlns="http://www.w3.org/2000/svg">
<g id="icon" clip-path="url(#clip0_202_4633)">
<g id="Group">
<path id="Vector" d="M78.6506 42.481C77.7623 39.4088 70.7331 36.707 69.3357 36.1961C67.8364 35.6466 63.9865 34.33 60.2893 33.8454C53.799 30.6696 46.5205 28.4506 46.3818 28.4102C46.2659 28.3857 43.3868 27.7817 35.3499 27.7817C30.0077 27.7817 24.7937 28.8351 20.1942 29.762C17.7855 30.2483 15.5121 30.71 13.4932 30.9593C7.69284 31.6756 3.32502 31.7423 3.28113 31.7423C3.11155 31.7448 2.94651 31.7975 2.80685 31.8937C2.66719 31.99 2.55916 32.1254 2.4964 32.283C2.39282 32.5375 0 38.5626 0 41.3171C0 44.298 4.16067 47.2947 4.63467 47.6283C4.77862 47.7301 4.95067 47.7828 5.12622 47.7828H6.85896C7.50897 48.8312 8.41529 49.6967 9.49246 50.2978C10.5696 50.8989 11.7822 51.2157 13.0157 51.2184C14.2496 51.2165 15.4627 50.9 16.5403 50.2989C17.6179 49.6977 18.5244 48.8318 19.1742 47.7828H54.8558C56.0935 49.8315 58.3213 51.2184 60.8862 51.2184C63.451 51.2184 65.6771 49.8315 66.9183 47.7828H77.8975C78.0798 47.783 78.2574 47.7253 78.4047 47.618C78.5521 47.5107 78.6616 47.3594 78.7174 47.1859C78.7402 47.0981 79.3845 45.0195 78.6506 42.481ZM57.5296 34.4458C55.9009 34.774 54.2492 34.9748 52.5894 35.0462L52.6351 34.962C52.6949 34.8523 52.7304 34.731 52.739 34.6063C52.7476 34.4817 52.7292 34.3567 52.685 34.2398C52.6409 34.1229 52.572 34.017 52.483 33.9292C52.3941 33.8415 52.2873 33.774 52.1698 33.7313L49.5839 32.8167C49.4685 32.7761 49.3457 32.7606 49.2237 32.7712C49.1018 32.7818 48.9836 32.8184 48.8769 32.8784C48.7702 32.9383 48.6775 33.0204 48.6051 33.1191C48.5327 33.2177 48.4821 33.3307 48.4568 33.4504L48.1198 35.0761C43.7397 34.9321 38.8733 34.3475 33.4925 33.6049L35.8502 29.5039C43.1884 29.5285 45.9359 30.0745 45.9552 30.0745C49.8929 31.3116 53.7572 32.771 57.5296 34.4458ZM20.5347 31.4473C24.6076 30.6257 29.1773 29.7445 33.8243 29.5689L31.6527 33.3486L28.7156 32.9325C25.7189 32.5059 22.6607 32.0688 19.4884 31.658L20.5347 31.4473ZM13.0157 49.4997C11.5395 49.4974 10.1245 48.91 9.08064 47.8661C8.03683 46.8223 7.44939 45.4073 7.44707 43.9311C7.44893 42.4549 8.03627 41.0398 9.08024 39.9962C10.1242 38.9525 11.5395 38.3656 13.0157 38.3642C14.4923 38.3647 15.9083 38.9512 16.9528 39.995C17.9972 41.0388 18.5847 42.4545 18.5861 43.9311C18.5837 45.4076 17.9961 46.8229 16.9519 47.8668C15.9077 48.9106 14.4922 49.4979 13.0157 49.4997ZM60.8862 49.4997C59.4688 49.4983 58.11 48.9347 57.1078 47.9325C56.1056 46.9303 55.5419 45.5714 55.5405 44.154C55.5414 42.7366 56.1049 41.3774 57.1072 40.3751C58.1096 39.3728 59.4687 38.8093 60.8862 38.8084C62.3036 38.8093 63.6628 39.3728 64.6651 40.3751C65.6674 41.3774 66.2309 42.7366 66.2318 44.154C66.2295 45.5711 65.6656 46.9294 64.6636 47.9314C63.6616 48.9334 62.3032 49.4974 60.8862 49.4997Z" fill="#202020"/>
<path id="Vector_2" d="M13.0155 47.4792C14.974 47.4792 16.5617 45.8915 16.5617 43.9329C16.5617 41.9744 14.974 40.3867 13.0155 40.3867C11.0569 40.3867 9.46924 41.9744 9.46924 43.9329C9.46924 45.8915 11.0569 47.4792 13.0155 47.4792Z" fill="#202020"/>
<path id="Vector_3" d="M60.8861 47.7004C62.8446 47.7004 64.4323 46.1127 64.4323 44.1541C64.4323 42.1956 62.8446 40.6079 60.8861 40.6079C58.9275 40.6079 57.3398 42.1956 57.3398 44.1541C57.3398 46.1127 58.9275 47.7004 60.8861 47.7004Z" fill="#202020"/>
</g>
</g>
<defs>
<clipPath id="clip0_202_4633">
<rect width="79" height="79" fill="white"/>
</clipPath>
</defs>
</svg>
