<svg width="312" height="60" viewBox="0 0 312 60" fill="none" xmlns="http://www.w3.org/2000/svg">
<rect width="60" height="60" rx="30" fill="#E40604"/>
<path d="M37.65 36.56H35.07V41H30.66V36.56H21.51V33.41L30.9 19.58H35.07V33.05H37.65V36.56ZM30.66 29.42C30.66 29.08 30.66 28.68 30.66 28.22C30.68 27.74 30.7 27.27 30.72 26.81C30.74 26.33 30.76 25.91 30.78 25.55C30.8 25.17 30.82 24.91 30.84 24.77H30.72C30.54 25.17 30.35 25.56 30.15 25.94C29.95 26.32 29.71 26.71 29.43 27.11L25.5 33.05H30.66V29.42Z" fill="white"/>
</svg>
