<svg width="314" height="60" viewBox="0 0 314 60" fill="none" xmlns="http://www.w3.org/2000/svg">
<rect width="60" height="60" rx="30" fill="#E40604"/>
<path d="M37.17 41H22.2V37.85L27.57 32.42C28.65 31.3 29.52 30.37 30.18 29.63C30.84 28.87 31.32 28.19 31.62 27.59C31.92 26.97 32.07 26.31 32.07 25.61C32.07 24.75 31.83 24.11 31.35 23.69C30.89 23.27 30.26 23.06 29.46 23.06C28.64 23.06 27.84 23.25 27.06 23.63C26.28 24.01 25.46 24.55 24.6 25.25L22.14 22.34C22.76 21.8 23.41 21.3 24.09 20.84C24.79 20.38 25.59 20.01 26.49 19.73C27.41 19.43 28.51 19.28 29.79 19.28C31.19 19.28 32.39 19.54 33.39 20.06C34.41 20.56 35.19 21.25 35.73 22.13C36.29 22.99 36.57 23.97 36.57 25.07C36.57 25.97 36.43 26.8 36.15 27.56C35.89 28.32 35.5 29.06 34.98 29.78C34.48 30.48 33.86 31.21 33.12 31.97C32.38 32.71 31.54 33.52 30.6 34.4L27.84 36.98V37.19H37.17V41Z" fill="white"/>
</svg>
