<svg width="313" height="60" viewBox="0 0 313 60" fill="none" xmlns="http://www.w3.org/2000/svg">
<rect width="60" height="60" rx="30" fill="#E40604"/>
<path d="M36.33 24.38C36.33 25.36 36.12 26.21 35.7 26.93C35.3 27.65 34.75 28.24 34.05 28.7C33.37 29.16 32.59 29.5 31.71 29.72V29.81C33.43 30.01 34.73 30.53 35.61 31.37C36.51 32.21 36.96 33.34 36.96 34.76C36.96 36 36.65 37.12 36.03 38.12C35.43 39.1 34.49 39.88 33.21 40.46C31.95 41.02 30.32 41.3 28.32 41.3C27.14 41.3 26.04 41.2 25.02 41C24 40.8 23.04 40.51 22.14 40.13V36.29C23.06 36.75 24.02 37.1 25.02 37.34C26.04 37.58 26.98 37.7 27.84 37.7C29.46 37.7 30.59 37.42 31.23 36.86C31.89 36.3 32.22 35.51 32.22 34.49C32.22 33.89 32.07 33.39 31.77 32.99C31.47 32.57 30.94 32.26 30.18 32.06C29.44 31.84 28.4 31.73 27.06 31.73H25.44V28.25H27.09C28.41 28.25 29.41 28.13 30.09 27.89C30.79 27.63 31.26 27.29 31.5 26.87C31.76 26.43 31.89 25.93 31.89 25.37C31.89 24.61 31.65 24.02 31.17 23.6C30.71 23.16 29.93 22.94 28.83 22.94C28.15 22.94 27.53 23.03 26.97 23.21C26.41 23.37 25.9 23.57 25.44 23.81C25 24.05 24.61 24.28 24.27 24.5L22.17 21.38C22.73 20.98 23.35 20.62 24.03 20.3C24.73 19.98 25.5 19.73 26.34 19.55C27.18 19.37 28.12 19.28 29.16 19.28C31.36 19.28 33.1 19.73 34.38 20.63C35.68 21.51 36.33 22.76 36.33 24.38Z" fill="white"/>
</svg>
